<svg id="Слой_3" data-name="Слой 3" xmlns="http://www.w3.org/2000/svg" viewBox="0 0 478.11 373.52"><defs><style>.cls-1{fill:#fff;stroke:#201600;stroke-miterlimit:10;}</style></defs><path class="cls-1" d="M176,430.74c-14-9.89-19.18-26.79-20.75-32-5.68-18.79-1.32-35.19,1.94-47.46,4.55-17.13,11.73-28.73,19.32-41,4.44-7.19,15.86-25.63,28.05-36.36a88.92,88.92,0,0,0,10.55-10.88c3.14-3.85,5.66-6.92,7.9-11.6a41.34,41.34,0,0,0,4.09-20.19,30,30,0,0,0-3.37-11.87,10.56,10.56,0,0,0-2.7-3.63c-2.87-2.28-6.47-2-9-1.86a14.53,14.53,0,0,0-7.88,2.32c-2.58,1.82-2.5,3.09-4.64,5.56-3.2,3.71-8.24,4.35-10.67,4.67-5.42.69-7-1.39-12.86-.27a24.5,24.5,0,0,0-5.3,1.67c-22.7,9.7-33.38,16.88-33.38,16.88-4.94,3.32-21.76,12.27-55.4,30.17-25.33,13.47-22.55,11.3-38.13,19.95-16.57,9.19-25.4,14.79-26.27,13.63s8.22-9.32,22.73-22.47c40.34-36.57,36.21-34.62,63.3-58.6,5.35-4.73,16.65-14.66,30.66-28.46,4.88-4.8,4.39-4.46,7.23-7.17,16.63-15.82,30.35-26.74,30.35-26.74,3.12-2.49,6.37-5,8.75-9.61s1.93-7.47,3.08-11.74c2-7.54,7.06-12.17,12.43-17.12a71.68,71.68,0,0,1,25.8-15c76.79-25.44,122.61-34.19,122.61-34.19S430.71,60.54,483,66.62c4.28.5,11.48,1.69,11.51,2.94,0,1.6-8.52,2.56-21,4.92-5.39,1-2.41.58-52,13,0,0-3,.75-17.89,4.79,0,0-9.56,2.6-20.59,6.89a55.19,55.19,0,0,0-5.38,2.55,16,16,0,0,0-4.64,3.14A9.52,9.52,0,0,0,370.1,111a9.05,9.05,0,0,0,1.53,4.79c3.23,4.71,14.65,3.62,32.73,1.5,11-1.3,18.14-2.23,28.19-3,11.55-.94,20.06-1.61,20.36-.21.17.82-2.54,2-21.41,8.84C409,131,397.67,135.12,389.58,137.6c-4.92,1.51-9.63,3.67-14.54,5.25-3.11,1-6,2.54-9.13,3.56-1.77.58-5.66,1.8-7.35,4.84l-.21.4a13.77,13.77,0,0,0-1.33,7.09c.07,1.1.29,4.3,1.93,6.25,2.79,3.31,9,2.13,14.53,1.28,19.27-3,28.9-4.43,32.89-5.3,15.81-3.47,19.43-4.42,19.64-3.83.38,1.12-11.57,5.43-34.46,16.49-5.09,2.46-12,5.86-21.7,10-2.81,1.19-3.84,1.58-6.8,2.88-4.5,2-4.08,1.91-18.88,9.6a16.4,16.4,0,0,0-5.78,4.13,14,14,0,0,0-2.95,6.35,12.18,12.18,0,0,0,.95,8,12.34,12.34,0,0,0,4.51,4.64c1.89,1.2,2.49.95,5.73,2.59,2.45,1.24,3.67,1.87,4.47,2.8,1.87,2.21,1.52,5.74.59,9.43-2.74,10.93-10,19.35-15.45,26a285.55,285.55,0,0,0-20.47,28c-7.95,12.63-10.26,19.24-11,21.62-1.85,5.6-4.32,13.07-3.84,22.33.87,17,13.08,30.76,20.94,39.11a44.79,44.79,0,0,0,7.95,6.88c7.92,5.21,13,4.44,13.62,6.33,1.49,4.69-26.13,21-73.21,36.31C220.84,436.66,195.53,444.49,176,430.74Z" transform="translate(-16.95 -64.8)"/><path class="cls-1" d="M678.49,152.33" transform="translate(-16.95 -64.8)"/></svg>